<?xml version="1.0" standalone="no"?>
<!DOCTYPE svg PUBLIC "-//W3C//DTD SVG 20010904//EN"
 "http://www.w3.org/TR/2001/REC-SVG-20010904/DTD/svg10.dtd">
<svg version="1.0" xmlns="http://www.w3.org/2000/svg"
 width="351.000000pt" height="191.000000pt" viewBox="0 0 351.000000 191.000000"
 preserveAspectRatio="xMidYMid meet">

<g transform="translate(0.000000,191.000000) scale(0.100000,-0.100000)"
fill="#000000" stroke="none">
<path d="M89 1747 c-9 -7 -21 -22 -27 -34 -15 -27 -16 -192 -2 -228 20 -52 43
-55 478 -55 438 0 459 -2 531 -59 59 -47 84 -109 79 -197 -3 -63 -7 -78 -34
-111 -43 -54 -99 -82 -185 -93 -41 -5 -243 -10 -450 -10 -363 0 -376 -1 -397
-20 -12 -11 -24 -31 -27 -43 -3 -12 -4 -201 -3 -420 l3 -399 28 -24 c26 -22
37 -24 132 -24 114 0 147 9 164 47 7 15 11 116 11 288 l0 265 213 0 212 0 179
-286 c99 -157 189 -292 200 -300 31 -21 263 -20 294 2 30 21 41 52 32 85 -4
14 -84 142 -177 285 -93 142 -173 264 -177 271 -4 8 14 23 56 44 84 42 129 80
178 150 69 99 84 153 84 309 0 121 -2 142 -26 207 -49 133 -137 232 -263 294
-133 65 -163 69 -655 69 -326 -1 -439 -4 -451 -13z"/>
<path d="M2035 1735 l-25 -24 0 -246 0 -246 25 -24 c23 -24 30 -25 139 -25
107 0 117 2 143 24 l28 24 0 247 0 247 -28 24 c-26 22 -36 24 -143 24 -109 0
-116 -1 -139 -25z"/>
<path d="M2963 1691 c-43 -38 -274 -253 -513 -478 l-435 -408 -3 -350 c-1
-193 0 -360 3 -372 9 -38 54 -53 159 -53 178 0 176 -4 176 359 l0 269 112 107
c107 100 114 105 128 87 8 -10 136 -193 284 -406 178 -255 279 -392 297 -402
35 -17 255 -20 293 -3 38 18 53 63 33 102 -9 18 -163 241 -344 497 l-328 464
275 260 c151 142 281 270 288 283 16 30 9 66 -18 93 -18 18 -34 20 -175 20
l-155 0 -77 -69z"/>
</g>
</svg>
