<?xml version="1.0" standalone="no"?>
<!DOCTYPE svg PUBLIC "-//W3C//DTD SVG 20010904//EN"
 "http://www.w3.org/TR/2001/REC-SVG-20010904/DTD/svg10.dtd">
<svg version="1.0" xmlns="http://www.w3.org/2000/svg"
 width="178.000000pt" height="178.000000pt" viewBox="0 0 178.000000 178.000000"
 preserveAspectRatio="xMidYMid meet">

<g transform="translate(0.000000,178.000000) scale(0.100000,-0.100000)"
fill="#000000" stroke="none">
<path d="M140 1429 c0 -14 121 -179 132 -179 4 0 -21 38 -57 84 -36 46 -65 87
-65 90 0 3 179 6 398 6 l397 1 77 -83 78 -83 -288 -281 -287 -281 -3 130 -3
130 88 81 c48 44 117 109 153 143 l65 63 -250 -2 -250 -2 238 -6 239 -5 -146
-134 -146 -133 0 -135 c0 -94 4 -139 13 -148 6 -7 86 -95 177 -194 l165 -180
148 -1 c81 0 147 2 147 5 0 11 -465 505 -475 505 -6 0 -31 -20 -55 -45 -24
-25 -49 -45 -55 -45 -5 0 113 121 263 268 l272 267 -77 87 -78 88 -407 0
c-295 0 -408 -3 -408 -11z m766 -849 c115 -124 215 -233 223 -243 13 -16 5
-17 -122 -17 l-136 0 -163 175 c-89 97 -166 182 -170 189 -5 8 1 21 15 32 l22
19 -19 -22 c-39 -47 2 -21 59 37 33 33 65 59 71 58 6 -2 105 -104 220 -228z"/>
<path d="M1046 1143 c-191 -184 -305 -301 -302 -310 3 -7 115 -128 248 -268
l243 -255 148 0 c93 0 147 4 145 10 -1 5 -109 121 -238 256 -129 136 -236 250
-238 254 -1 3 133 138 298 299 165 161 300 297 300 302 0 5 -66 9 -149 9
l-148 0 -307 -297z m474 164 c-69 -67 -206 -201 -306 -298 l-181 -175 75 -79
c41 -44 151 -160 245 -258 l169 -177 -143 1 -144 1 -240 253 c-132 139 -240
258 -240 264 0 6 135 141 300 301 l300 290 145 0 145 0 -125 -123z"/>
<path d="M275 1218 c-3 -7 -4 -213 -3 -458 l3 -445 108 -3 107 -3 0 461 0 460
-105 0 c-75 0 -107 -4 -110 -12z m205 -448 l0 -450 -100 0 -100 0 0 450 0 450
100 0 100 0 0 -450z"/>
</g>
</svg>
